<mxfile host="app.diagrams.net" modified="2021-04-16T19:49:48.767Z" agent="5.0 (Windows NT 10.0; Win64; x64) AppleWebKit/537.36 (KHTML, like Gecko) Chrome/89.0.4389.128 Safari/537.36" etag="PdAWdIdLPovIDdS8axm8" version="13.9.9" type="github">
  <diagram id="qnHXnvt9fU2-0mYcGVFx" name="Page-1">
    <mxGraphModel dx="842" dy="550" grid="1" gridSize="10" guides="1" tooltips="1" connect="1" arrows="1" fold="1" page="1" pageScale="1" pageWidth="1169" pageHeight="1654" math="0" shadow="0">
      <root>
        <mxCell id="0" />
        <mxCell id="1" parent="0" />
        <mxCell id="6ifoQp81T10a2pGOSros-1" style="edgeStyle=orthogonalEdgeStyle;rounded=0;orthogonalLoop=1;jettySize=auto;html=1;entryX=0.5;entryY=0;entryDx=0;entryDy=0;" parent="1" source="6ifoQp81T10a2pGOSros-2" edge="1">
          <mxGeometry relative="1" as="geometry">
            <mxPoint x="414" y="130" as="targetPoint" />
          </mxGeometry>
        </mxCell>
        <mxCell id="6ifoQp81T10a2pGOSros-2" value="START" style="ellipse;whiteSpace=wrap;html=1;" parent="1" vertex="1">
          <mxGeometry x="354" y="10" width="120" height="80" as="geometry" />
        </mxCell>
        <mxCell id="6ifoQp81T10a2pGOSros-3" value="END" style="ellipse;whiteSpace=wrap;html=1;" parent="1" vertex="1">
          <mxGeometry x="354" y="1460" width="120" height="80" as="geometry" />
        </mxCell>
        <mxCell id="6ifoQp81T10a2pGOSros-44" style="edgeStyle=orthogonalEdgeStyle;rounded=0;orthogonalLoop=1;jettySize=auto;html=1;entryX=0.5;entryY=0;entryDx=0;entryDy=0;" parent="1" source="6ifoQp81T10a2pGOSros-5" target="6ifoQp81T10a2pGOSros-9" edge="1">
          <mxGeometry relative="1" as="geometry" />
        </mxCell>
        <mxCell id="6ifoQp81T10a2pGOSros-5" value="INPUT CREDIT&amp;nbsp;&lt;br&gt;(PHYSICALLY INPUT MONEY)" style="shape=parallelogram;perimeter=parallelogramPerimeter;whiteSpace=wrap;html=1;fixedSize=1;" parent="1" vertex="1">
          <mxGeometry x="309" y="320" width="210" height="60" as="geometry" />
        </mxCell>
        <mxCell id="6ifoQp81T10a2pGOSros-6" style="edgeStyle=orthogonalEdgeStyle;rounded=0;orthogonalLoop=1;jettySize=auto;html=1;" parent="1" source="6ifoQp81T10a2pGOSros-7" edge="1">
          <mxGeometry relative="1" as="geometry">
            <mxPoint x="414" y="750" as="targetPoint" />
          </mxGeometry>
        </mxCell>
        <mxCell id="6ifoQp81T10a2pGOSros-7" value="SELECT PRODUCT &lt;br&gt;TO PURCHASE" style="shape=parallelogram;perimeter=parallelogramPerimeter;whiteSpace=wrap;html=1;fixedSize=1;" parent="1" vertex="1">
          <mxGeometry x="309" y="670" width="210" height="60" as="geometry" />
        </mxCell>
        <mxCell id="6ifoQp81T10a2pGOSros-8" style="edgeStyle=orthogonalEdgeStyle;rounded=0;orthogonalLoop=1;jettySize=auto;html=1;entryX=0.5;entryY=0;entryDx=0;entryDy=0;" parent="1" source="6ifoQp81T10a2pGOSros-9" target="6ifoQp81T10a2pGOSros-12" edge="1">
          <mxGeometry relative="1" as="geometry" />
        </mxCell>
        <mxCell id="6ifoQp81T10a2pGOSros-9" value="CHECK IF SUPPORTED/VALID PAPER MONEY OR COINS" style="rounded=0;whiteSpace=wrap;html=1;" parent="1" vertex="1">
          <mxGeometry x="329" y="420" width="170" height="60" as="geometry" />
        </mxCell>
        <mxCell id="6ifoQp81T10a2pGOSros-10" style="edgeStyle=orthogonalEdgeStyle;rounded=0;orthogonalLoop=1;jettySize=auto;html=1;" parent="1" source="6ifoQp81T10a2pGOSros-12" target="6ifoQp81T10a2pGOSros-16" edge="1">
          <mxGeometry relative="1" as="geometry" />
        </mxCell>
        <mxCell id="6ifoQp81T10a2pGOSros-11" style="edgeStyle=orthogonalEdgeStyle;rounded=0;orthogonalLoop=1;jettySize=auto;html=1;entryX=1;entryY=0.5;entryDx=0;entryDy=0;" parent="1" source="6ifoQp81T10a2pGOSros-12" target="6ifoQp81T10a2pGOSros-14" edge="1">
          <mxGeometry relative="1" as="geometry" />
        </mxCell>
        <mxCell id="6ifoQp81T10a2pGOSros-12" value="IS MONEY VALID ?" style="rhombus;whiteSpace=wrap;html=1;" parent="1" vertex="1">
          <mxGeometry x="334" y="570" width="160" height="80" as="geometry" />
        </mxCell>
        <mxCell id="6ifoQp81T10a2pGOSros-13" style="edgeStyle=orthogonalEdgeStyle;rounded=0;orthogonalLoop=1;jettySize=auto;html=1;entryX=0;entryY=0.75;entryDx=0;entryDy=0;" parent="1" source="6ifoQp81T10a2pGOSros-14" target="6ifoQp81T10a2pGOSros-18" edge="1">
          <mxGeometry relative="1" as="geometry">
            <Array as="points">
              <mxPoint x="145" y="174" />
            </Array>
          </mxGeometry>
        </mxCell>
        <mxCell id="6ifoQp81T10a2pGOSros-14" value="ADD AMOUNT TO CREDIT" style="rounded=0;whiteSpace=wrap;html=1;" parent="1" vertex="1">
          <mxGeometry x="60" y="580" width="170" height="60" as="geometry" />
        </mxCell>
        <mxCell id="6ifoQp81T10a2pGOSros-43" style="edgeStyle=orthogonalEdgeStyle;rounded=0;orthogonalLoop=1;jettySize=auto;html=1;entryX=1;entryY=0.75;entryDx=0;entryDy=0;exitX=1;exitY=0.5;exitDx=0;exitDy=0;" parent="1" source="6ifoQp81T10a2pGOSros-16" target="6ifoQp81T10a2pGOSros-18" edge="1">
          <mxGeometry relative="1" as="geometry">
            <Array as="points">
              <mxPoint x="880" y="610" />
              <mxPoint x="880" y="173" />
            </Array>
          </mxGeometry>
        </mxCell>
        <mxCell id="6ifoQp81T10a2pGOSros-16" value="DISPLAY &lt;br&gt;&quot;MONEY NOT VALID&quot;&lt;br&gt;MESSAGE" style="shape=parallelogram;perimeter=parallelogramPerimeter;whiteSpace=wrap;html=1;fixedSize=1;" parent="1" vertex="1">
          <mxGeometry x="580" y="580" width="210" height="60" as="geometry" />
        </mxCell>
        <mxCell id="6ifoQp81T10a2pGOSros-41" style="edgeStyle=orthogonalEdgeStyle;rounded=0;orthogonalLoop=1;jettySize=auto;html=1;entryX=0.5;entryY=0;entryDx=0;entryDy=0;" parent="1" source="6ifoQp81T10a2pGOSros-18" target="6ifoQp81T10a2pGOSros-21" edge="1">
          <mxGeometry relative="1" as="geometry" />
        </mxCell>
        <mxCell id="6ifoQp81T10a2pGOSros-18" value="DISPLAY CURRENT CREDIT" style="shape=parallelogram;perimeter=parallelogramPerimeter;whiteSpace=wrap;html=1;fixedSize=1;" parent="1" vertex="1">
          <mxGeometry x="309" y="130" width="210" height="60" as="geometry" />
        </mxCell>
        <mxCell id="6ifoQp81T10a2pGOSros-40" style="edgeStyle=orthogonalEdgeStyle;rounded=0;orthogonalLoop=1;jettySize=auto;html=1;entryX=0.5;entryY=0;entryDx=0;entryDy=0;" parent="1" source="6ifoQp81T10a2pGOSros-21" target="6ifoQp81T10a2pGOSros-5" edge="1">
          <mxGeometry relative="1" as="geometry" />
        </mxCell>
        <mxCell id="6ifoQp81T10a2pGOSros-42" style="edgeStyle=orthogonalEdgeStyle;rounded=0;orthogonalLoop=1;jettySize=auto;html=1;entryX=0;entryY=0.5;entryDx=0;entryDy=0;" parent="1" source="6ifoQp81T10a2pGOSros-21" target="6ifoQp81T10a2pGOSros-7" edge="1">
          <mxGeometry relative="1" as="geometry">
            <Array as="points">
              <mxPoint x="270" y="250" />
              <mxPoint x="270" y="700" />
            </Array>
          </mxGeometry>
        </mxCell>
        <mxCell id="6ifoQp81T10a2pGOSros-21" value="FINISHED&lt;br&gt;INSERTING&lt;br&gt;CREDIT ?" style="rhombus;whiteSpace=wrap;html=1;" parent="1" vertex="1">
          <mxGeometry x="334" y="210" width="160" height="80" as="geometry" />
        </mxCell>
        <mxCell id="6ifoQp81T10a2pGOSros-22" style="edgeStyle=orthogonalEdgeStyle;rounded=0;orthogonalLoop=1;jettySize=auto;html=1;entryX=0.5;entryY=0;entryDx=0;entryDy=0;" parent="1" source="6ifoQp81T10a2pGOSros-23" target="6ifoQp81T10a2pGOSros-25" edge="1">
          <mxGeometry relative="1" as="geometry" />
        </mxCell>
        <mxCell id="6ifoQp81T10a2pGOSros-23" value="CHECK IF SELECTED PRODUCT IN STOCK" style="rounded=0;whiteSpace=wrap;html=1;" parent="1" vertex="1">
          <mxGeometry x="329" y="750" width="170" height="60" as="geometry" />
        </mxCell>
        <mxCell id="6ifoQp81T10a2pGOSros-24" style="edgeStyle=orthogonalEdgeStyle;rounded=0;orthogonalLoop=1;jettySize=auto;html=1;entryX=0;entryY=0.5;entryDx=0;entryDy=0;" parent="1" source="6ifoQp81T10a2pGOSros-25" target="6ifoQp81T10a2pGOSros-34" edge="1">
          <mxGeometry relative="1" as="geometry" />
        </mxCell>
        <mxCell id="6ifoQp81T10a2pGOSros-45" style="edgeStyle=orthogonalEdgeStyle;rounded=0;orthogonalLoop=1;jettySize=auto;html=1;entryX=0.5;entryY=0;entryDx=0;entryDy=0;" parent="1" source="6ifoQp81T10a2pGOSros-25" target="6ifoQp81T10a2pGOSros-28" edge="1">
          <mxGeometry relative="1" as="geometry" />
        </mxCell>
        <mxCell id="6ifoQp81T10a2pGOSros-25" value="PRODUCT IN&lt;br&gt;STOCK ?" style="rhombus;whiteSpace=wrap;html=1;" parent="1" vertex="1">
          <mxGeometry x="334" y="850" width="160" height="80" as="geometry" />
        </mxCell>
        <mxCell id="6ifoQp81T10a2pGOSros-26" style="edgeStyle=orthogonalEdgeStyle;rounded=0;orthogonalLoop=1;jettySize=auto;html=1;entryX=0.5;entryY=1;entryDx=0;entryDy=0;exitX=0;exitY=0.5;exitDx=0;exitDy=0;" parent="1" source="6ifoQp81T10a2pGOSros-27" target="6ifoQp81T10a2pGOSros-32" edge="1">
          <mxGeometry relative="1" as="geometry">
            <Array as="points">
              <mxPoint x="165" y="1090" />
            </Array>
          </mxGeometry>
        </mxCell>
        <mxCell id="6ifoQp81T10a2pGOSros-47" style="edgeStyle=orthogonalEdgeStyle;rounded=0;orthogonalLoop=1;jettySize=auto;html=1;entryX=0.5;entryY=0;entryDx=0;entryDy=0;" parent="1" source="6ifoQp81T10a2pGOSros-27" target="6ifoQp81T10a2pGOSros-29" edge="1">
          <mxGeometry relative="1" as="geometry" />
        </mxCell>
        <mxCell id="6ifoQp81T10a2pGOSros-27" value="IS THERE ENOUGH&lt;br&gt;CREDIT ?" style="rhombus;whiteSpace=wrap;html=1;" parent="1" vertex="1">
          <mxGeometry x="334" y="1050" width="160" height="80" as="geometry" />
        </mxCell>
        <mxCell id="6ifoQp81T10a2pGOSros-46" style="edgeStyle=orthogonalEdgeStyle;rounded=0;orthogonalLoop=1;jettySize=auto;html=1;entryX=0.5;entryY=0;entryDx=0;entryDy=0;" parent="1" source="6ifoQp81T10a2pGOSros-28" target="6ifoQp81T10a2pGOSros-27" edge="1">
          <mxGeometry relative="1" as="geometry" />
        </mxCell>
        <mxCell id="6ifoQp81T10a2pGOSros-28" value="CHECK IF THERE IS MORE CREDIT OR EQUAL TO PRODUCT PRICE" style="rounded=0;whiteSpace=wrap;html=1;" parent="1" vertex="1">
          <mxGeometry x="329" y="960" width="170" height="60" as="geometry" />
        </mxCell>
        <mxCell id="6ifoQp81T10a2pGOSros-48" style="edgeStyle=orthogonalEdgeStyle;rounded=0;orthogonalLoop=1;jettySize=auto;html=1;entryX=0.5;entryY=0;entryDx=0;entryDy=0;" parent="1" source="6ifoQp81T10a2pGOSros-29" target="6ifoQp81T10a2pGOSros-30" edge="1">
          <mxGeometry relative="1" as="geometry" />
        </mxCell>
        <mxCell id="6ifoQp81T10a2pGOSros-29" value="SUSBTRACT CREDIT EQUAL TO PRODUCT PRICE FROM CURRENT CREDIT" style="rounded=0;whiteSpace=wrap;html=1;" parent="1" vertex="1">
          <mxGeometry x="329" y="1160" width="170" height="60" as="geometry" />
        </mxCell>
        <mxCell id="6ifoQp81T10a2pGOSros-49" style="edgeStyle=orthogonalEdgeStyle;rounded=0;orthogonalLoop=1;jettySize=auto;html=1;entryX=0.5;entryY=0;entryDx=0;entryDy=0;" parent="1" source="6ifoQp81T10a2pGOSros-30" target="6ifoQp81T10a2pGOSros-37" edge="1">
          <mxGeometry relative="1" as="geometry" />
        </mxCell>
        <mxCell id="6ifoQp81T10a2pGOSros-30" value="PROVIDE BOUGHT PRODUCT TO CUSTOMER&lt;br&gt;(PHYSICALLY PUSH ITEM FROM SHELF)" style="rounded=0;whiteSpace=wrap;html=1;" parent="1" vertex="1">
          <mxGeometry x="329" y="1250" width="170" height="60" as="geometry" />
        </mxCell>
        <mxCell id="6ifoQp81T10a2pGOSros-31" style="edgeStyle=orthogonalEdgeStyle;rounded=0;orthogonalLoop=1;jettySize=auto;html=1;exitX=0;exitY=0.5;exitDx=0;exitDy=0;entryX=0;entryY=0.25;entryDx=0;entryDy=0;" parent="1" source="6ifoQp81T10a2pGOSros-32" target="6ifoQp81T10a2pGOSros-18" edge="1">
          <mxGeometry relative="1" as="geometry">
            <Array as="points">
              <mxPoint x="30" y="890" />
              <mxPoint x="30" y="147" />
            </Array>
            <mxPoint x="314" y="150" as="targetPoint" />
          </mxGeometry>
        </mxCell>
        <mxCell id="6ifoQp81T10a2pGOSros-32" value="DISPLAY &lt;br&gt;&quot;NOT ENOUGH CREDIT&quot;&lt;br&gt;MESSAGE" style="shape=parallelogram;perimeter=parallelogramPerimeter;whiteSpace=wrap;html=1;fixedSize=1;" parent="1" vertex="1">
          <mxGeometry x="60" y="860" width="210" height="60" as="geometry" />
        </mxCell>
        <mxCell id="6ifoQp81T10a2pGOSros-33" style="edgeStyle=orthogonalEdgeStyle;rounded=0;orthogonalLoop=1;jettySize=auto;html=1;entryX=1;entryY=0.5;entryDx=0;entryDy=0;" parent="1" source="6ifoQp81T10a2pGOSros-34" target="6ifoQp81T10a2pGOSros-18" edge="1">
          <mxGeometry relative="1" as="geometry">
            <mxPoint x="509" y="695" as="targetPoint" />
            <Array as="points">
              <mxPoint x="900" y="890" />
              <mxPoint x="900" y="160" />
            </Array>
          </mxGeometry>
        </mxCell>
        <mxCell id="6ifoQp81T10a2pGOSros-34" value="DISPLAY &lt;br&gt;&quot;PRODUCT NOT IN STOCK&quot;&lt;br&gt;MESSAGE" style="shape=parallelogram;perimeter=parallelogramPerimeter;whiteSpace=wrap;html=1;fixedSize=1;" parent="1" vertex="1">
          <mxGeometry x="580" y="860" width="210" height="60" as="geometry" />
        </mxCell>
        <mxCell id="6ifoQp81T10a2pGOSros-35" style="edgeStyle=orthogonalEdgeStyle;rounded=0;orthogonalLoop=1;jettySize=auto;html=1;entryX=1;entryY=0.25;entryDx=0;entryDy=0;" parent="1" source="6ifoQp81T10a2pGOSros-37" target="6ifoQp81T10a2pGOSros-18" edge="1">
          <mxGeometry relative="1" as="geometry">
            <mxPoint x="860" y="490" as="targetPoint" />
            <Array as="points">
              <mxPoint x="920" y="1390" />
              <mxPoint x="920" y="146" />
            </Array>
          </mxGeometry>
        </mxCell>
        <mxCell id="6ifoQp81T10a2pGOSros-36" style="edgeStyle=orthogonalEdgeStyle;rounded=0;orthogonalLoop=1;jettySize=auto;html=1;entryX=0.5;entryY=0;entryDx=0;entryDy=0;" parent="1" source="6ifoQp81T10a2pGOSros-37" target="6ifoQp81T10a2pGOSros-3" edge="1">
          <mxGeometry relative="1" as="geometry" />
        </mxCell>
        <mxCell id="6ifoQp81T10a2pGOSros-37" value="FINISHED USING &lt;br&gt;MACHINE ?" style="rhombus;whiteSpace=wrap;html=1;" parent="1" vertex="1">
          <mxGeometry x="334" y="1350" width="160" height="80" as="geometry" />
        </mxCell>
      </root>
    </mxGraphModel>
  </diagram>
</mxfile>
